<?xml version="1.0" encoding="UTF-8"?>
<svg width="50px" height="50px" viewBox="0 0 50 50" version="1.1" xmlns="http://www.w3.org/2000/svg" xmlns:xlink="http://www.w3.org/1999/xlink">
    <title>avatar</title>
    <g id="Atoms" stroke="none" stroke-width="1" fill="none" fill-rule="evenodd">
        <g id="01---Atoms/Icons/avatar" fill="#030303" fill-rule="nonzero">
            <g id="Group">
                <path d="M25,0 C11.1899038,0 0,11.1899038 0,25 C0,38.8100962 11.1899038,50 25,50 C38.8100962,50 50,38.8100962 50,25 C50,11.1899038 38.8100962,0 25,0 Z M25,2.07932692 C37.6322115,2.07932692 47.9206731,12.3557692 47.9206731,25 C47.9206731,30.6009615 45.9014423,35.7211538 42.5600962,39.7115385 C42.5600962,39.7115385 42.5480769,39.6995192 42.5480769,39.6995192 C40.1442308,38.7139423 34.6274038,36.8028846 31.3822115,35.8413462 C31.09375,35.7572115 31.0576923,35.7331731 31.0576923,34.5552885 C31.0576923,33.5817308 31.4543269,32.5961538 31.8509615,31.7548077 C32.2836538,30.8533654 32.7764423,29.3269231 32.9567308,27.9567308 C33.4615385,27.3677885 34.1586538,26.2139423 34.5913462,24.0024038 C34.9759615,22.0552885 34.7956731,21.3461538 34.5432692,20.6850962 C34.5192308,20.6129808 34.4831731,20.5408654 34.4711538,20.4807692 C34.375,20.0240385 34.5072115,17.65625 34.84375,15.8173077 C35.0721154,14.5552885 34.7836538,11.875 33.0528846,9.65144231 C31.9591346,8.24519231 29.8557692,6.52644231 26.0216346,6.28605769 L23.9182692,6.28605769 C20.1442308,6.52644231 18.0528846,8.24519231 16.9471154,9.65144231 C15.2043269,11.875 14.9158654,14.5552885 15.1442308,15.8173077 C15.4807692,17.65625 15.6129808,20.0240385 15.5168269,20.4807692 C15.4927885,20.5649038 15.46875,20.625 15.4447115,20.6971154 C15.1923077,21.3581731 15,22.0673077 15.3966346,24.0144231 C15.8413462,26.2259615 16.5264423,27.3798077 17.03125,27.96875 C17.2115385,29.3389423 17.7163462,30.8533654 18.1370192,31.7668269 C18.4495192,32.4278846 18.59375,33.3293269 18.59375,34.6033654 C18.59375,35.7932692 18.5456731,35.8052885 18.28125,35.8894231 C14.9158654,36.8870192 9.60336538,38.7980769 7.45192308,39.7235577 C4.09855769,35.7331731 2.07932692,30.6009615 2.07932692,25 C2.07932692,12.3677885 12.3677885,2.07932692 25,2.07932692 Z M8.82211538,41.2259615 C11.2139423,40.2644231 15.8653846,38.6057692 18.8100962,37.7283654 L18.8221154,37.7283654 L18.8341346,37.7283654 C19.84375,37.4158654 20.2283654,36.7067308 20.3725962,36.1658654 C20.4807692,35.78125 20.4927885,35.3846154 20.4927885,34.6033654 C20.4927885,33.0288462 20.2884615,31.875 19.8557692,30.9495192 C19.5072115,30.2163462 19.0625,28.8822115 18.90625,27.7163462 L18.8341346,27.1514423 L18.4615385,26.71875 C18.2331731,26.4543269 17.6442308,25.6129808 17.2475962,23.6418269 C16.9350962,22.0793269 17.0793269,21.71875 17.1995192,21.3942308 L17.1995192,21.3822115 L17.1995192,21.3701923 L17.2115385,21.3341346 C17.2355769,21.2620192 17.2836538,21.1418269 17.3317308,20.9975962 L17.34375,20.9375 L17.3557692,20.8774038 C17.5600962,19.9158654 17.2836538,17.0432692 16.9951923,15.46875 C16.8629808,14.7235577 17.03125,12.6081731 18.4134615,10.8293269 C19.2668269,9.74759615 20.9134615,8.41346154 23.9302885,8.20913462 L25.9134615,8.20913462 C28.9903846,8.41346154 30.6490385,9.74759615 31.4903846,10.8413462 C32.8846154,12.6201923 33.0408654,14.7355769 32.9086538,15.4807692 C32.6201923,17.0432692 32.34375,19.9278846 32.5480769,20.8894231 L32.5600962,20.9254808 L32.5721154,20.9615385 C32.6201923,21.1418269 32.6802885,21.2980769 32.7163462,21.3942308 C32.8485577,21.7307692 32.96875,22.1033654 32.6682692,23.6298077 C32.2716346,25.6009615 31.6947115,26.4302885 31.4663462,26.7067308 L31.09375,27.1394231 L31.0216346,27.7163462 C30.8653846,28.8822115 30.4206731,30.2043269 30.0841346,30.9375 C29.6033654,31.9591346 29.1105769,33.1971154 29.1105769,34.5552885 C29.1105769,35.2524038 29.1225962,35.7091346 29.2427885,36.1418269 C29.3990385,36.6706731 29.7836538,37.3677885 30.7932692,37.6802885 L30.8052885,37.6802885 L30.8173077,37.6802885 C33.6658654,38.5216346 38.4975962,40.1802885 41.1538462,41.2139423 C37.0072115,45.3485577 31.2860577,47.908696 24.9879808,47.908696 C18.6899038,47.9206731 12.9807692,45.3605769 8.82211538,41.2259615 Z" id="Shape"></path>
            </g>
        </g>
    </g>
</svg>