<?xml version="1.0" encoding="UTF-8"?>
<svg width="50px" height="50px" viewBox="0 0 50 50" version="1.1" xmlns="http://www.w3.org/2000/svg" xmlns:xlink="http://www.w3.org/1999/xlink">
    <title>forward</title>
    <defs>
        <path d="M19.6536431,39 C20.0872932,39 20.4822246,38.9021084 20.8384372,38.7063253 C21.1946498,38.5105422 21.4772967,38.2286145 21.686378,37.8605422 C21.8954593,37.4924699 22,37.096988 22,36.6740964 C22,36.0319277 21.7599437,35.4680723 21.279831,34.9825301 L5.59873284,19.5 L21.279831,4.01746988 C21.7599437,3.53192771 22,2.96807229 22,2.32590361 C22,1.8873494 21.8954593,1.48795181 21.686378,1.12771084 C21.4772967,0.76746988 21.1946498,0.489457831 20.8384372,0.293674699 C20.4822246,0.0978915663 20.0872932,0 19.6536431,0 C19.0031679,0 18.4533615,0.219277108 18.0042239,0.657831325 L0.766631468,17.7379518 C0.487856389,17.9885542 0.290390707,18.2587349 0.174234424,18.548494 C0.0580781415,18.838253 0,19.1554217 0,19.5 C0,19.8445783 0.0580781415,20.161747 0.174234424,20.451506 C0.290390707,20.7412651 0.487856389,21.0114458 0.766631468,21.2620482 L18.0042239,38.3421687 C18.4533615,38.7807229 19.0031679,39 19.6536431,39 Z" id="path-1"></path>
    </defs>
    <g id="Atoms" stroke="none" stroke-width="1" fill="none" fill-rule="evenodd">
        <g id="Group" transform="translate(14.000000, 6.000000)">
            <mask id="mask-2" fill="white">
                <use xlink:href="#path-1"></use>
            </mask>
            <use id="Forward" fill="#030303" fill-rule="nonzero" transform="translate(11.000000, 19.500000) scale(-1, 1) translate(-11.000000, -19.500000) " xlink:href="#path-1"></use>
        </g>
    </g>
</svg>