<?xml version="1.0" encoding="UTF-8"?>
<svg width="50px" height="50px" viewBox="0 0 50 50" version="1.1" xmlns="http://www.w3.org/2000/svg" xmlns:xlink="http://www.w3.org/1999/xlink">
    <title>lens</title>
    <defs>
        <path d="M31.8866679,35.0112249 L47.0289027,49.9019608 L49.754902,46.9267086 L34.9156225,32.103107 C41.0014971,24.280407 40.9060281,12.6269717 33.8904291,5.61000459 C26.2759464,-2.00596313 13.7721557,-1.84765643 5.96242974,5.96359252 C-1.84729618,13.7748415 -2.00557201,26.2810706 5.60891076,33.8970383 C12.6245098,40.9140055 23.7905667,41.3315106 31.6117415,35.2444491 L31.8866679,35.0112249 Z M19.735614,35.9893543 C28.9809699,35.9893543 36.4758101,28.6920355 36.4758101,19.6903347 C36.4758101,10.6886349 28.9809699,3.39131511 19.735614,3.39131511 C10.4902582,3.39131511 2.99541794,10.6886349 2.99541794,19.6903347 C2.99541794,28.6920355 10.4902582,35.9893543 19.735614,35.9893543 L19.735614,35.9893543 Z" id="path-1"></path>
    </defs>
    <g id="Atoms" stroke="none" stroke-width="1" fill="none" fill-rule="evenodd">
        <g id="Lens" transform="translate(0.239876, 0.138097)">
            <mask id="mask-2" fill="white">
                <use xlink:href="#path-1"></use>
            </mask>
            <use id="Icon" fill="#030303" xlink:href="#path-1"></use>
            <rect id="Color" fill="#030303" fill-rule="nonzero" mask="url(#mask-2)" x="-0.239876179" y="-0.138096657" width="50.1960784" height="50.1960784"></rect>
        </g>
    </g>
</svg>