<?xml version="1.0" encoding="UTF-8"?>
<svg width="50px" height="50px" viewBox="0 0 50 50" version="1.1" xmlns="http://www.w3.org/2000/svg" xmlns:xlink="http://www.w3.org/1999/xlink">
    <title>thumb-up</title>
    <defs>
        <path d="M8.49688742,46.9423029 C9.27130063,46.9113352 9.7636338,46.8924131 10.2768024,46.8744802 C14.1089528,46.7405639 16.5078056,46.7784019 18.2403112,47.0948374 C20.7033427,47.5463598 23.915569,48.001909 26.7038759,48.2555259 C30.2700169,48.5798925 32.9515182,48.5612781 34.1918797,48.1478548 C35.0431057,47.8641337 35.4987711,47.408502 35.7006727,46.8028418 C35.851694,46.3498115 35.851694,45.8368537 35.7554225,45.3555318 C35.7414532,45.2856906 35.7267726,45.2240364 35.7125846,45.1720178 C35.5794158,44.7664471 35.7166537,44.3665739 36.0357546,44.1538556 C36.0836995,44.1209761 36.1123563,44.1008849 36.1450994,44.0774987 C36.2408946,44.0090786 36.3485759,43.9290138 36.4650703,43.8384138 C36.7987068,43.5789378 37.132395,43.2897627 37.4411841,42.9809964 C38.2553542,42.1668864 38.7271822,41.3805643 38.7271822,40.7681284 C38.7271822,40.0087501 38.5676419,39.370636 38.3052575,38.8459059 C38.2168132,38.6690302 38.1238952,38.5203724 38.0337713,38.4002161 C37.9528987,38.3000386 37.9488287,38.2955296 37.9460557,38.2925455 C37.4987175,37.8413583 37.6947042,37.0684862 38.3097358,36.8837953 C38.4564838,36.8270449 38.5490207,36.7849432 38.6506987,36.7316927 C38.9496581,36.5751226 39.2512475,36.3632697 39.5330928,36.0897218 C40.1761155,35.4656291 40.6217371,34.6185159 40.7824106,33.485308 C40.9617616,32.2241589 40.6559549,31.378108 40.044551,30.7981681 C39.873201,30.635636 39.6890158,30.5069383 39.5069081,30.410019 C39.4456239,30.377403 39.3903854,30.3515427 39.3432862,30.3320786 C38.3098581,29.9924585 38.6856574,28.4980027 39.7158403,28.6726133 C39.7990152,28.6738385 39.8338551,28.6708941 39.8699523,28.6649171 C39.9621536,28.6496506 40.0510331,28.6168571 40.1347916,28.5619577 C40.2798577,28.4668744 40.4111311,28.3069296 40.5223066,28.0462977 C40.6815558,27.6729648 40.7739427,27.1443184 40.7739427,26.4418623 C40.7739427,25.532491 40.3683801,24.9910127 39.4453838,24.5811597 C38.6233792,24.2161517 37.7122685,24.0382135 35.5747518,23.75563 C35.3085293,23.7204349 35.2960308,23.7187804 35.1949944,23.7053099 C33.3992064,23.4658892 32.4125032,23.280896 31.4387833,22.9408919 C30.0846226,22.4680453 29.1190494,21.7539761 28.5831453,20.682247 C28.5241126,20.5641903 28.4933799,20.434018 28.4933799,20.3020339 C28.4933799,18.9683567 28.8556387,17.6531091 29.5404863,16.2644929 C30.0566882,15.2178275 30.6543869,14.2848222 31.7191565,12.7765099 C31.7891341,12.6773823 32.1808364,12.1243036 32.291379,11.9674207 C32.5067759,11.6617279 32.6781356,11.4151707 32.8377579,11.1801886 C33.2270306,10.6071349 33.530252,10.1252323 33.7807051,9.67305862 C34.3527007,8.640365 34.6336613,7.78082281 34.6336613,6.99907249 C34.6336613,5.15643284 34.4182613,3.67951295 34.0481843,2.69271377 C33.8966313,2.28860243 33.7285902,1.99531589 33.5684399,1.82450153 C33.5162003,1.76878344 33.4718742,1.73366415 33.4385531,1.71568627 C33.2380118,1.83463725 32.9683588,2.15324451 32.6082559,2.71781979 C32.4385504,2.98388695 32.2520095,3.29726863 32.004263,3.72908591 C31.8828833,3.94064849 31.3998233,4.79259066 31.2866558,4.99059074 C30.6055975,6.18218412 30.0514154,7.09512483 29.4115838,8.04669271 C28.5890239,9.27001681 27.7164844,10.4077207 26.7479515,11.490469 C25.2840447,13.1270086 23.6372593,14.5948554 21.7554989,15.8880386 C21.1693954,16.2907381 20.4772373,16.9148906 19.6456636,17.7773071 C18.9865705,18.4608459 18.3687381,19.149134 17.2276981,20.4531215 C17.1933436,20.4923821 17.1576404,20.5331926 17.1134866,20.583669 C15.5374025,22.3854419 14.9068363,23.0865766 14.1049051,23.8931177 C12.9932695,25.0111434 12.0851046,25.7378103 11.2637333,26.0966982 C8.65529254,27.2357333 4.39709903,28.2260595 2.02361636,28.3098092 C2.00064949,28.3757668 1.97781877,28.4545287 1.95579644,28.5452022 C1.83978319,29.0228685 1.76265332,29.7564888 1.7314901,30.6913164 C1.67071038,32.5145734 1.78717633,35.010088 2.04754898,37.6136224 C2.30800057,40.2179462 2.69084443,42.7145697 3.11686924,44.5402556 C3.33634536,45.4807982 3.56194238,46.2200952 3.77785392,46.7076014 C3.84964486,46.869698 3.91687088,46.9954738 3.97330466,47.0805171 C4.98862503,47.0768791 5.91490328,47.0455528 8.49688742,46.9423029 Z M37.2834221,47.3526403 C36.9123996,48.4666257 36.058527,49.3212026 34.6998701,49.7744618 C33.1571283,50.2891332 30.3266761,50.3087993 26.5232727,49.962541 C23.6820423,49.703878 20.4209718,49.2409863 17.9114583,48.7805292 C16.3437915,48.4939437 14.0214692,48.45728 10.3171823,48.5868444 C9.80779977,48.604661 9.31805265,48.6235005 8.54663827,48.654376 C5.75903464,48.7659486 4.88364493,48.7943836 3.74347954,48.7943836 C3.32598498,48.7943836 2.98704136,48.5885926 2.71187771,48.2633281 C2.52662892,48.0443499 2.36267508,47.7605378 2.2067915,47.4082522 C1.94030803,46.806019 1.68645288,45.9733705 1.44498479,44.9376537 C1.00062797,43.0316965 0.607232213,40.4639558 0.340124949,37.79068 C0.0729387792,35.1166144 -0.0468420946,32.5477643 0.0167183821,30.6393772 C0.0514042508,29.5979428 0.13946351,28.759615 0.287988365,28.1475377 C0.37754538,27.7784693 0.491292093,27.477432 0.646946701,27.2365305 C0.888109177,26.8632912 1.24350157,26.6177177 1.69765027,26.6177177 C3.74635489,26.6177177 8.04438314,25.6411896 10.5633386,24.5402418 C11.1373553,24.289207 11.9069427,23.6728693 12.8779932,22.6953591 C13.6441557,21.9240998 14.261781,21.2367371 15.8111738,19.4638858 C15.8553653,19.4133208 15.8911114,19.3724246 15.9255225,19.3330641 C17.0836963,18.0083064 17.7141809,17.3052921 18.3979847,16.5954888 C19.3017174,15.6573946 20.0699272,14.96404 20.7679247,14.4840295 C22.5338249,13.2693771 24.0785812,11.8912355 25.4537505,10.3525164 C27.1140375,8.49477018 28.3184092,6.70199965 29.7815066,4.13983423 C29.8924079,3.94562464 30.3761823,3.09165575 30.5001724,2.87534937 C30.7599044,2.42223462 30.9584481,2.08838892 31.1451642,1.79538922 C31.6384677,1.02128462 32.0461075,0.539206904 32.5190567,0.256807631 C32.7972008,0.0907270125 33.0951775,0 33.408004,0 C33.9220069,0 34.3916869,0.238764361 34.7796028,0.652882707 C35.1092915,1.00484065 35.386148,1.48847979 35.6106861,2.08774191 C36.0602716,3.28762543 36.3041188,4.96109929 36.3041188,6.99329947 C36.3041188,8.10789779 35.9379418,9.22914891 35.2387219,10.4926706 C34.9600523,10.9962391 34.6310317,11.5196138 34.2153261,12.1321296 C34.0495182,12.376437 33.8730573,12.6305621 33.6526329,12.9436711 C33.5406888,13.1026858 33.148574,13.6568446 33.0798098,13.7543409 C32.0638406,15.1948176 31.5038142,16.0698022 31.0379658,17.0152184 C30.4996388,18.1077264 30.2076512,19.1104375 30.1706537,20.0896488 C30.503487,20.6260506 31.0890065,21.0276432 31.970912,21.3358642 C32.800345,21.6257464 33.7066964,21.7958275 35.3894409,22.0203785 C35.4895116,22.0337322 35.5019429,22.0353793 35.7671667,22.0704739 C36.8847176,22.2183489 37.4142362,22.2966674 38.022764,22.4156185 C38.8460887,22.5765568 39.5223583,22.769936 40.103435,23.0281928 C41.6045851,23.6953718 42.4416066,24.8139076 42.4416066,26.4447085 C42.4416066,28.0006307 42.0582947,29.0931314 41.3534201,29.7403322 C42.244012,30.6872464 42.6759048,32.0221821 42.4331924,33.730406 C42.2185203,35.2458187 41.5930911,36.4358094 40.6853541,37.3176152 C40.3913879,37.6031836 40.0819909,37.8423949 39.7673507,38.0397333 C40.171652,38.848223 40.3957773,39.7454635 40.3957773,40.7773258 C40.3957773,41.4289132 40.1800798,42.0765395 39.7951682,42.7185879 C39.4918137,43.2245959 39.0895782,43.7166225 38.6124464,44.1941478 C38.2498073,44.5570861 37.8641069,44.8916355 37.4783548,45.1919124 C37.5396491,45.9198109 37.5189884,46.6453584 37.2834221,47.3526403 Z" id="path-1"></path>
    </defs>
    <g id="Atoms" stroke="none" stroke-width="1" fill="none" fill-rule="evenodd">
        <g id="ThumbUp" transform="translate(3.823529, 0.000000)">
            <mask id="mask-2" fill="white">
                <use xlink:href="#path-1"></use>
            </mask>
            <use fill="#030303" fill-rule="nonzero" xlink:href="#path-1"></use>
        </g>
    </g>
</svg>